<?xml version="1.0" encoding="UTF-8"?>
<svg version="1.1" xmlns="http://www.w3.org/2000/svg" width="261" height="261">
<path d="M0 0 C102.24573171 0 102.24573171 0 125.375 21.75 C136.73044754 33.85128974 142.60789958 48.72815415 145 65 C145.11085937 65.70253906 145.22171875 66.40507813 145.3359375 67.12890625 C148.62083143 92.65341987 145.7860363 122.11042782 129.6640625 143.03125 C116.97855631 158.16270123 99.39969685 166.17683861 80 169 C53.39902338 170.90006976 26.66874992 170 0 170 C0 113.9 0 57.8 0 0 Z M34 29 C34 65.96 34 102.92 34 141 C68.49113707 142.64524601 68.49113707 142.64524601 97.84765625 127.4296875 C111.36190054 112.17404331 111.06559328 92.58869902 110.23632812 73.26367188 C109.76733716 66.78694546 108.41564147 61.03492438 106 55 C105.54947266 53.82050781 105.54947266 53.82050781 105.08984375 52.6171875 C101.00271297 43.3105607 93.94384726 37.4216773 85 33 C66.0895725 27.58520885 66.0895725 27.58520885 34 29 Z " fill="#04BE64" transform="translate(62,46)"/>
<path d="M0 0 C83 0 83 0 101 6 C101 6.33 101 6.66 101 7 C94.25 7.125 94.25 7.125 92 6 C90.29297265 5.93003986 88.58331997 5.91559846 86.875 5.9375 C85.50988281 5.95103516 85.50988281 5.95103516 84.1171875 5.96484375 C83.06917969 5.98224609 83.06917969 5.98224609 82 6 C82.33 5.01 82.66 4.02 83 3 C77.72 3 72.44 3 67 3 C67 2.34 67 1.68 67 1 C45.22 1 23.44 1 1 1 C1 56.44 1 111.88 1 169 C22.45 169 43.9 169 66 169 C66 169.33 66 169.66 66 170 C44.22 170 22.44 170 0 170 C0 113.9 0 57.8 0 0 Z " fill="#69D8A3" transform="translate(62,46)"/>
<path d="M0 0 C7.98557534 14.97244629 4.73560167 38.87949017 2 55 C1.67 55 1.34 55 1 55 C1.00523682 54.36425049 1.01047363 53.72850098 1.01586914 53.07348633 C1.14054478 35.35218509 0.72247618 17.70450931 0 0 Z " fill="#5ACC97" transform="translate(204,101)"/>
<path d="M0 0 C0.58203125 1.890625 0.58203125 1.890625 1 4 C-0.3125 5.75 -0.3125 5.75 -2 7 C-2.66 7 -3.32 7 -4 7 C-4.0825 7.5775 -4.165 8.155 -4.25 8.75 C-5.24846101 11.74538304 -6.58321562 12.97054667 -9 15 C-11.98046875 16.01171875 -11.98046875 16.01171875 -15.1875 16.6875 C-18.90186385 17.2192644 -18.90186385 17.2192644 -22 19 C-24.67058851 19.14115161 -27.32432238 19.04247107 -30 19 C-30 18.67 -30 18.34 -30 18 C-29.09378906 17.78085938 -28.18757812 17.56171875 -27.25390625 17.3359375 C-15.31168624 14.22716912 -7.70268797 9.75838926 0 0 Z " fill="#49C98D" transform="translate(164,167)"/>
<path d="M0 0 C11.20416325 -0.57952569 24.33011429 -0.44659047 34 6 C27.25 6.125 27.25 6.125 25 5 C23.29297265 4.93003986 21.58331997 4.91559846 19.875 4.9375 C18.96492188 4.94652344 18.05484375 4.95554687 17.1171875 4.96484375 C16.06917969 4.98224609 16.06917969 4.98224609 15 5 C15.33 4.01 15.66 3.02 16 2 C10.72 2 5.44 2 0 2 C0 1.34 0 0.68 0 0 Z " fill="#41C385" transform="translate(129,47)"/>
<path d="M0 0 C0.66 0 1.32 0 2 0 C5.07343137 5.0975713 5.40754531 8.92000784 5.29296875 14.6796875 C5.28872391 15.49245148 5.28447906 16.30521545 5.28010559 17.14260864 C5.26340804 19.72041959 5.22577362 22.2974282 5.1875 24.875 C5.17244158 26.63019699 5.1587552 28.38540631 5.14648438 30.140625 C5.11353392 34.42738913 5.06181453 38.71355886 5 43 C4.67 43 4.34 43 4 43 C3.98541748 42.21463867 3.97083496 41.42927734 3.95581055 40.62011719 C3.88046959 36.99629708 3.78409739 33.3733134 3.6875 29.75 C3.65366211 27.89761719 3.65366211 27.89761719 3.61914062 26.0078125 C3.41089613 18.81391175 2.62511265 12.32400786 0.63208008 5.39941406 C0 3 0 3 0 0 Z " fill="#6ED8A7" transform="translate(168,101)"/>
<path d="M0 0 C1.24974464 3.74923391 0.24434737 5.13094458 -1.453125 8.54882812 C-1.81921875 9.25458984 -2.1853125 9.96035156 -2.5625 10.6875 C-2.92730469 11.40486328 -3.29210937 12.12222656 -3.66796875 12.86132812 C-6.3336757 17.99234796 -9.28991516 22.54789819 -13 27 C-13.66 25.68 -14.32 24.36 -15 23 C-14.34 23 -13.68 23 -13 23 C-12.67 22.01 -12.34 21.02 -12 20 C-11.34 20.33 -10.68 20.66 -10 21 C-9.67 19.68 -9.34 18.36 -9 17 C-8.34 17 -7.68 17 -7 17 C-7 15.68 -7 14.36 -7 13 C-6.34 13 -5.68 13 -5 13 C-4.67 11.02 -4.34 9.04 -4 7 C-3.34 7 -2.68 7 -2 7 C-2 5.35 -2 3.7 -2 2 C-1.34 2 -0.68 2 0 2 C0 1.34 0 0.68 0 0 Z " fill="#6ED3A5" transform="translate(202,165)"/>
<path d="M0 0 C4.95 0 9.9 0 15 0 C15 0.66 15 1.32 15 2 C17.97 2.495 17.97 2.495 21 3 C18.02977779 3.91145054 15.93514414 4.01801972 12.890625 3.44140625 C11.75947266 3.23354492 11.75947266 3.23354492 10.60546875 3.02148438 C9.43951172 2.79428711 9.43951172 2.79428711 8.25 2.5625 C7.45722656 2.41490234 6.66445312 2.26730469 5.84765625 2.11523438 C3.89702754 1.75096034 1.9483107 1.37647488 0 1 C0 0.67 0 0.34 0 0 Z " fill="#3DC283" transform="translate(120,73)"/>
<path d="M0 0 C1.32 0.33 2.64 0.66 4 1 C2.21475351 2.19713017 0.4215972 3.38247279 -1.375 4.5625 C-2.87160156 5.55443359 -2.87160156 5.55443359 -4.3984375 6.56640625 C-5.25695312 7.03949219 -6.11546875 7.51257813 -7 8 C-7.66 7.67 -8.32 7.34 -9 7 C-8.34 6.01 -7.68 5.02 -7 4 C-6.01 4 -5.02 4 -4 4 C-4 3.34 -4 2.68 -4 2 C-2.68 2 -1.36 2 0 2 C0 1.34 0 0.68 0 0 Z " fill="#59CD96" transform="translate(176,199)"/>
<path d="M0 0 C0.33 0 0.66 0 1 0 C1.08933496 5.09209299 1.17321743 10.01382593 0 15 C-1.32 15.99 -2.64 16.98 -4 18 C-2.68 12.06 -1.36 6.12 0 0 Z " fill="#61D09B" transform="translate(171,145)"/>
<path d="M0 0 C0.33 1.32 0.66 2.64 1 4 C-1.31 5.98 -3.62 7.96 -6 10 C-6.66 9.67 -7.32 9.34 -8 9 C-5.36 6.03 -2.72 3.06 0 0 Z " fill="#67D4A3" transform="translate(164,167)"/>
<path d="M0 0 C0.8125 1.6875 0.8125 1.6875 1 4 C-1.4375 6.75 -1.4375 6.75 -4 9 C-3.6875 5.625 -3.6875 5.625 -3 2 C-2.01 1.34 -1.02 0.68 0 0 Z " fill="#26BF77" transform="translate(169,161)"/>
<path d="M0 0 C2.29633824 3.44450737 2.54016485 5.93812283 3 10 C2.01 10 1.02 10 0 10 C0 6.7 0 3.4 0 0 Z " fill="#4DCA8F" transform="translate(201,91)"/>
<path d="M0 0 C0.8125 1.6875 0.8125 1.6875 1 4 C-1.4375 6.75 -1.4375 6.75 -4 9 C-4.33 7.68 -4.66 6.36 -5 5 C-4.34 5 -3.68 5 -3 5 C-2.67 4.01 -2.34 3.02 -2 2 C-1.34 2.33 -0.68 2.66 0 3 C0 2.01 0 1.02 0 0 Z " fill="#51CA94" transform="translate(192,183)"/>
<path d="M0 0 C1.98 0.66 3.96 1.32 6 2 C4.02 2.99 4.02 2.99 2 4 C2 4.66 2 5.32 2 6 C1.01 5.67 0.02 5.34 -1 5 C-0.67 3.35 -0.34 1.7 0 0 Z " fill="#2BC279" transform="translate(169,56)"/>
<path d="M0 0 C0.33 0.99 0.66 1.98 1 3 C1.99 3.33 2.98 3.66 4 4 C3.67 4.99 3.34 5.98 3 7 C0.69 5.35 -1.62 3.7 -4 2 C-2.68 1.34 -1.36 0.68 0 0 Z " fill="#4ACA91" transform="translate(155,80)"/>
<path d="M0 0 C2.31 1.98 4.62 3.96 7 6 C5.68 6.33 4.36 6.66 3 7 C0 2.25 0 2.25 0 0 Z " fill="#4FC992" transform="translate(180,62)"/>
<path d="M0 0 C3.44216672 2.6598561 3.99504674 5.90288286 5 10 C1.32769295 6.92000054 0.43197635 4.7517398 0 0 Z " fill="#6CD4A7" transform="translate(196,81)"/>
<path d="" fill="#FFFFFF" transform="translate(0,0)"/>
<path d="" fill="#FFFFFF" transform="translate(0,0)"/>
<path d="" fill="#FFFFFF" transform="translate(0,0)"/>
<path d="" fill="#FFFFFF" transform="translate(0,0)"/>
<path d="" fill="#FFFFFF" transform="translate(0,0)"/>
<path d="" fill="#FFFFFF" transform="translate(0,0)"/>
<path d="" fill="#FFFFFF" transform="translate(0,0)"/>
<path d="" fill="#FFFFFF" transform="translate(0,0)"/>
<path d="" fill="#FFFFFF" transform="translate(0,0)"/>
<path d="" fill="#FFFFFF" transform="translate(0,0)"/>
<path d="" fill="#FFFFFF" transform="translate(0,0)"/>
<path d="" fill="#FFFFFF" transform="translate(0,0)"/>
<path d="" fill="#FFFFFF" transform="translate(0,0)"/>
<path d="" fill="#FFFFFF" transform="translate(0,0)"/>
<path d="" fill="#FFFFFF" transform="translate(0,0)"/>
<path d="" fill="#FFFFFF" transform="translate(0,0)"/>
<path d="" fill="#FFFFFF" transform="translate(0,0)"/>
<path d="" fill="#FFFFFF" transform="translate(0,0)"/>
<path d="" fill="#FFFFFF" transform="translate(0,0)"/>
<path d="" fill="#FFFFFF" transform="translate(0,0)"/>
<path d="" fill="#FFFFFF" transform="translate(0,0)"/>
<path d="" fill="#FFFFFF" transform="translate(0,0)"/>
<path d="" fill="#FFFFFF" transform="translate(0,0)"/>
<path d="" fill="#FFFFFF" transform="translate(0,0)"/>
<path d="" fill="#FFFFFF" transform="translate(0,0)"/>
<path d="" fill="#FFFFFF" transform="translate(0,0)"/>
<path d="" fill="#FFFFFF" transform="translate(0,0)"/>
<path d="" fill="#FFFFFF" transform="translate(0,0)"/>
<path d="" fill="#FFFFFF" transform="translate(0,0)"/>
<path d="" fill="#FFFFFF" transform="translate(0,0)"/>
<path d="" fill="#FFFFFF" transform="translate(0,0)"/>
<path d="" fill="#FFFFFF" transform="translate(0,0)"/>
<path d="" fill="#FFFFFF" transform="translate(0,0)"/>
<path d="" fill="#FFFFFF" transform="translate(0,0)"/>
<path d="" fill="#FFFFFF" transform="translate(0,0)"/>
<path d="" fill="#FFFFFF" transform="translate(0,0)"/>
<path d="" fill="#FFFFFF" transform="translate(0,0)"/>
<path d="" fill="#FFFFFF" transform="translate(0,0)"/>
<path d="" fill="#FFFFFF" transform="translate(0,0)"/>
<path d="" fill="#FFFFFF" transform="translate(0,0)"/>
<path d="" fill="#FFFFFF" transform="translate(0,0)"/>
<path d="" fill="#FFFFFF" transform="translate(0,0)"/>
<path d="" fill="#FFFFFF" transform="translate(0,0)"/>
<path d="" fill="#FFFFFF" transform="translate(0,0)"/>
<path d="" fill="#FFFFFF" transform="translate(0,0)"/>
<path d="" fill="#FFFFFF" transform="translate(0,0)"/>
<path d="" fill="#FFFFFF" transform="translate(0,0)"/>
<path d="" fill="#FFFFFF" transform="translate(0,0)"/>
<path d="" fill="#FFFFFF" transform="translate(0,0)"/>
<path d="" fill="#FFFFFF" transform="translate(0,0)"/>
<path d="" fill="#FFFFFF" transform="translate(0,0)"/>
<path d="" fill="#FFFFFF" transform="translate(0,0)"/>
<path d="" fill="#FFFFFF" transform="translate(0,0)"/>
<path d="" fill="#FFFFFF" transform="translate(0,0)"/>
<path d="" fill="#FFFFFF" transform="translate(0,0)"/>
<path d="" fill="#FFFFFF" transform="translate(0,0)"/>
<path d="" fill="#FFFFFF" transform="translate(0,0)"/>
<path d="" fill="#FFFFFF" transform="translate(0,0)"/>
<path d="" fill="#FFFFFF" transform="translate(0,0)"/>
<path d="" fill="#FFFFFF" transform="translate(0,0)"/>
<path d="" fill="#FFFFFF" transform="translate(0,0)"/>
<path d="" fill="#FFFFFF" transform="translate(0,0)"/>
<path d="" fill="#FFFFFF" transform="translate(0,0)"/>
<path d="" fill="#FFFFFF" transform="translate(0,0)"/>
<path d="" fill="#FFFFFF" transform="translate(0,0)"/>
<path d="" fill="#FFFFFF" transform="translate(0,0)"/>
<path d="" fill="#FFFFFF" transform="translate(0,0)"/>
<path d="" fill="#FFFFFF" transform="translate(0,0)"/>
<path d="" fill="#FFFFFF" transform="translate(0,0)"/>
<path d="" fill="#FFFFFF" transform="translate(0,0)"/>
<path d="" fill="#FFFFFF" transform="translate(0,0)"/>
<path d="" fill="#FFFFFF" transform="translate(0,0)"/>
<path d="" fill="#FFFFFF" transform="translate(0,0)"/>
<path d="" fill="#FFFFFF" transform="translate(0,0)"/>
<path d="" fill="#FFFFFF" transform="translate(0,0)"/>
<path d="" fill="#FFFFFF" transform="translate(0,0)"/>
<path d="" fill="#FFFFFF" transform="translate(0,0)"/>
</svg>
